# Blender v2.76 (sub 0) OBJ File: 'roulette.blend'
# www.blender.org
mtllib roulette.mtl
o Cylinder
v -0.250000 0.000000 -1.000000
v 0.250000 -0.000000 -1.000000
v -0.250000 -0.642788 -0.766044
v 0.250000 -0.642788 -0.766044
v -0.250000 -0.984808 -0.173648
v 0.250000 -0.984808 -0.173648
v -0.250000 -0.866025 0.500000
v 0.250000 -0.866025 0.500000
v -0.250000 -0.342020 0.939693
v 0.250000 -0.342020 0.939693
v -0.250000 0.342020 0.939693
v 0.250000 0.342020 0.939693
v -0.250000 0.866025 0.500000
v 0.250000 0.866025 0.500000
v -0.250000 0.984808 -0.173648
v 0.250000 0.984808 -0.173648
v -0.250000 0.642788 -0.766044
v 0.250000 0.642788 -0.766044
vt 0.000000 1.000000
vt 0.000000 0.000000
vt 1.000000 0.000000
vt 1.000000 1.000000
vt 0.500000 1.000000
vt 0.821394 0.883022
vt 0.992404 0.586824
vt 0.933013 0.250000
vt 0.671010 0.030154
vt 0.328990 0.030154
vt 0.066987 0.250000
vt 0.007596 0.586824
vt 0.178606 0.883022
vn 0.000000 0.000000 1.000000
vn 0.000000 -0.866000 -0.500000
vn 0.000000 0.984800 0.173600
vn 0.000000 0.642800 0.766000
vn 0.000000 -0.342000 -0.939700
vn 0.000000 -0.642800 0.766000
vn 0.000000 -0.984800 0.173600
vn 0.000000 0.866000 -0.500000
vn 0.000000 0.342000 -0.939700
vn 1.000000 -0.000000 -0.000000
vn -1.000000 0.000000 -0.000000
usemtl None
s off
f 9/1/1 10/2/1 12/3/1 11/4/1
usemtl None_layout4.png
f 3/1/2 4/2/2 6/3/2 5/4/2
usemtl None_layout8.png
f 13/3/3 14/4/3 16/1/3 15/2/3
usemtl None_layout9.png
f 11/3/4 12/4/4 14/1/4 13/2/4
usemtl None_layout5.png
f 1/1/5 2/2/5 4/3/5 3/4/5
usemtl None_layout2.png
f 7/3/6 8/4/6 10/1/6 9/2/6
usemtl None_layout3.png
f 5/1/7 6/2/7 8/3/7 7/4/7
usemtl None_layout7.png
f 15/3/8 16/4/8 18/1/8 17/2/8
usemtl None_layout6.png
f 17/3/9 18/4/9 2/1/9 1/2/9
usemtl None_NONE
f 4/5/10 2/6/10 18/7/10 16/8/10 14/9/10 12/10/10 10/11/10 8/12/10 6/13/10
f 1/5/11 3/6/11 5/7/11 7/8/11 9/9/11 11/10/11 13/11/11 15/12/11 17/13/11
